<mxfile host="app.diagrams.net" agent="Mozilla/5.0 (Windows NT 10.0; Win64; x64) AppleWebKit/537.36 (KHTML, like Gecko) Chrome/131.0.0.0 Safari/537.36" version="25.0.3">
  <diagram name="Page-1" id="k_BvVta1esRCgkBy5qOW">
    <mxGraphModel dx="3718" dy="1544" grid="1" gridSize="10" guides="1" tooltips="1" connect="1" arrows="1" fold="1" page="1" pageScale="1" pageWidth="850" pageHeight="1100" background="none" math="0" shadow="0">
      <root>
        <mxCell id="0" />
        <mxCell id="1" parent="0" />
        <mxCell id="ClMVa5LSUmE7PCBOvppx-3" value="" style="edgeStyle=orthogonalEdgeStyle;rounded=0;orthogonalLoop=1;jettySize=auto;html=1;" edge="1" parent="1" source="ClMVa5LSUmE7PCBOvppx-1" target="ClMVa5LSUmE7PCBOvppx-2">
          <mxGeometry relative="1" as="geometry" />
        </mxCell>
        <mxCell id="ClMVa5LSUmE7PCBOvppx-1" value="START" style="ellipse;whiteSpace=wrap;html=1;fillColor=#d5e8d4;strokeColor=#82b366;gradientColor=#97d077;" vertex="1" parent="1">
          <mxGeometry x="380" y="70" width="120" height="80" as="geometry" />
        </mxCell>
        <mxCell id="ClMVa5LSUmE7PCBOvppx-5" value="" style="edgeStyle=orthogonalEdgeStyle;rounded=0;orthogonalLoop=1;jettySize=auto;html=1;" edge="1" parent="1" source="ClMVa5LSUmE7PCBOvppx-2" target="ClMVa5LSUmE7PCBOvppx-4">
          <mxGeometry relative="1" as="geometry" />
        </mxCell>
        <mxCell id="ClMVa5LSUmE7PCBOvppx-2" value="&lt;p data-pm-slice=&quot;1 1 []&quot;&gt;&lt;font style=&quot;font-size: 22px;&quot;&gt;&lt;strong style=&quot;&quot;&gt;Initialize Peripherals.&amp;nbsp;&lt;/strong&gt;&lt;span style=&quot;background-color: initial;&quot;&gt;Initialize ADC, DMA, UART, and Timer. Configure interrupts for DMA, flag, buffers etc. Set flags&lt;/span&gt;&lt;/font&gt;&lt;span style=&quot;color: rgba(0, 0, 0, 0); font-family: monospace; font-size: 0px; text-align: start; text-wrap-mode: nowrap; background-color: initial;&quot;&gt;%3CmxGraphModel%3E%3Croot%3E%3CmxCell%20id%3D%220%22%2F%3E%3CmxCell%20id%3D%221%22%20parent%3D%220%22%2F%3E%3CmxCell%20id%3D%222%22%20value%3D%22%26%2310%3B%26lt%3Bul%20data-pm-slice%3D%26quot%3B3%203%20%5B%5D%26quot%3B%20data-spread%3D%26quot%3Bfalse%26quot%3B%26gt%3B%26lt%3Bli%26gt%3B%26lt%3Bp%26gt%3B%26lt%3Bspan%26gt%3BAllocate%20memory%20for%20ping-pong%20buffers%20(%26lt%3B%2Fspan%26gt%3B%26lt%3Bcode%26gt%3B%26lt%3Bspan%26gt%3Bbuffer1%26lt%3B%2Fspan%26gt%3B%26lt%3B%2Fcode%26gt%3B%26lt%3Bspan%26gt%3B%20and%20%26lt%3B%2Fspan%26gt%3B%26lt%3Bcode%26gt%3B%26lt%3Bspan%26gt%3Bbuffer2%26lt%3B%2Fspan%26gt%3B%26lt%3B%2Fcode%26gt%3B%26lt%3Bspan%26gt%3B).%26lt%3B%2Fspan%26gt%3B%26lt%3B%2Fp%26gt%3B%26lt%3B%2Fli%26gt%3B%26lt%3Bli%26gt%3B%26lt%3Bp%26gt%3B%26lt%3Bspan%26gt%3BConfigure%20interrupts%20for%20DMA%20and%20UART.%26lt%3B%2Fspan%26gt%3B%26lt%3B%2Fp%26gt%3B%26lt%3B%2Fli%26gt%3B%26lt%3B%2Ful%26gt%3B%26%2310%3B%26%2310%3B%22%20style%3D%22shape%3Dparallelogram%3Bperimeter%3DparallelogramPerimeter%3BwhiteSpace%3Dwrap%3Bhtml%3D1%3BfixedSize%3D1%3B%22%20vertex%3D%221%22%20parent%3D%221%22%3E%3CmxGeometry%20x%3D%22225%22%20y%3D%22220%22%20width%3D%22430%22%20height%3D%22130%22%20as%3D%22geometry%22%2F%3E%3C%2FmxCell%3E%3C%2Froot%3E%3C%2FmxGraphModel%3E&lt;/span&gt;&lt;/p&gt;" style="shape=parallelogram;perimeter=parallelogramPerimeter;whiteSpace=wrap;html=1;fixedSize=1;" vertex="1" parent="1">
          <mxGeometry x="156.25" y="210" width="567.5" height="170" as="geometry" />
        </mxCell>
        <mxCell id="ClMVa5LSUmE7PCBOvppx-11" value="" style="edgeStyle=orthogonalEdgeStyle;rounded=0;orthogonalLoop=1;jettySize=auto;html=1;" edge="1" parent="1" source="ClMVa5LSUmE7PCBOvppx-4" target="ClMVa5LSUmE7PCBOvppx-10">
          <mxGeometry relative="1" as="geometry" />
        </mxCell>
        <mxCell id="ClMVa5LSUmE7PCBOvppx-4" value="&lt;p data-pm-slice=&quot;1 1 []&quot;&gt;&lt;strong&gt;&lt;font style=&quot;font-size: 20px;&quot;&gt;Start ADC DMA - Fill active buffer&lt;/font&gt;&lt;/strong&gt;&lt;/p&gt;" style="rounded=1;whiteSpace=wrap;html=1;" vertex="1" parent="1">
          <mxGeometry x="315" y="440" width="250" height="100" as="geometry" />
        </mxCell>
        <mxCell id="ClMVa5LSUmE7PCBOvppx-15" value="" style="edgeStyle=orthogonalEdgeStyle;rounded=0;orthogonalLoop=1;jettySize=auto;html=1;" edge="1" parent="1" source="ClMVa5LSUmE7PCBOvppx-10" target="ClMVa5LSUmE7PCBOvppx-14">
          <mxGeometry relative="1" as="geometry" />
        </mxCell>
        <mxCell id="ClMVa5LSUmE7PCBOvppx-16" value="&lt;font style=&quot;font-size: 20px;&quot;&gt;TRUE&lt;/font&gt;" style="edgeLabel;html=1;align=center;verticalAlign=middle;resizable=0;points=[];" vertex="1" connectable="0" parent="ClMVa5LSUmE7PCBOvppx-15">
          <mxGeometry x="-0.0779" y="1" relative="1" as="geometry">
            <mxPoint as="offset" />
          </mxGeometry>
        </mxCell>
        <mxCell id="ClMVa5LSUmE7PCBOvppx-10" value="&lt;font style=&quot;font-size: 20px;&quot;&gt;&lt;b&gt;if Active Buffer is Full&lt;/b&gt;&lt;/font&gt;" style="rhombus;whiteSpace=wrap;html=1;rounded=1;fillColor=#ffe6cc;strokeColor=#d79b00;" vertex="1" parent="1">
          <mxGeometry x="325" y="580" width="230" height="200" as="geometry" />
        </mxCell>
        <mxCell id="ClMVa5LSUmE7PCBOvppx-12" value="" style="curved=1;endArrow=classic;html=1;rounded=0;exitX=1;exitY=0.5;exitDx=0;exitDy=0;strokeWidth=2;" edge="1" parent="1" source="ClMVa5LSUmE7PCBOvppx-10" target="ClMVa5LSUmE7PCBOvppx-10">
          <mxGeometry width="50" height="50" relative="1" as="geometry">
            <mxPoint x="630" y="710" as="sourcePoint" />
            <mxPoint x="680" y="665" as="targetPoint" />
            <Array as="points">
              <mxPoint x="620" y="730" />
              <mxPoint x="850" y="720" />
              <mxPoint x="770" y="540" />
              <mxPoint x="590" y="570" />
            </Array>
          </mxGeometry>
        </mxCell>
        <mxCell id="ClMVa5LSUmE7PCBOvppx-13" value="&lt;font style=&quot;font-size: 20px;&quot;&gt;FALSE&lt;/font&gt;" style="edgeLabel;html=1;align=center;verticalAlign=middle;resizable=0;points=[];" vertex="1" connectable="0" parent="ClMVa5LSUmE7PCBOvppx-12">
          <mxGeometry x="0.1311" relative="1" as="geometry">
            <mxPoint x="27" y="88" as="offset" />
          </mxGeometry>
        </mxCell>
        <mxCell id="ClMVa5LSUmE7PCBOvppx-19" value="" style="edgeStyle=orthogonalEdgeStyle;rounded=0;orthogonalLoop=1;jettySize=auto;html=1;" edge="1" parent="1" source="ClMVa5LSUmE7PCBOvppx-14" target="ClMVa5LSUmE7PCBOvppx-17">
          <mxGeometry relative="1" as="geometry" />
        </mxCell>
        <mxCell id="ClMVa5LSUmE7PCBOvppx-14" value="&lt;ul&gt;&lt;li&gt;&lt;font style=&quot;font-size: 18px;&quot;&gt;Clear Flags&lt;/font&gt;&lt;/li&gt;&lt;li&gt;&lt;font style=&quot;font-size: 18px;&quot;&gt;&lt;b style=&quot;&quot;&gt;Swap Buffers&lt;/b&gt;&lt;/font&gt;&lt;/li&gt;&lt;/ul&gt;" style="rounded=1;whiteSpace=wrap;html=1;align=left;fillColor=#e1d5e7;strokeColor=#9673a6;" vertex="1" parent="1">
          <mxGeometry x="353.75" y="860" width="172.5" height="60" as="geometry" />
        </mxCell>
        <mxCell id="ClMVa5LSUmE7PCBOvppx-21" value="" style="edgeStyle=orthogonalEdgeStyle;rounded=0;orthogonalLoop=1;jettySize=auto;html=1;" edge="1" parent="1" target="ClMVa5LSUmE7PCBOvppx-20">
          <mxGeometry relative="1" as="geometry">
            <mxPoint x="440" y="1200" as="sourcePoint" />
          </mxGeometry>
        </mxCell>
        <mxCell id="ClMVa5LSUmE7PCBOvppx-28" value="" style="edgeStyle=orthogonalEdgeStyle;rounded=0;orthogonalLoop=1;jettySize=auto;html=1;" edge="1" parent="1" source="ClMVa5LSUmE7PCBOvppx-17" target="ClMVa5LSUmE7PCBOvppx-27">
          <mxGeometry relative="1" as="geometry" />
        </mxCell>
        <mxCell id="ClMVa5LSUmE7PCBOvppx-17" value="&lt;ul&gt;&lt;li&gt;&lt;font style=&quot;font-size: 25px;&quot;&gt;&lt;b style=&quot;&quot;&gt;Process Buffer - FFT and find the bin of max amplitude&amp;nbsp;&lt;/b&gt;&lt;/font&gt;&lt;/li&gt;&lt;li&gt;&lt;font style=&quot;font-size: 20px;&quot;&gt;&lt;b&gt;Start printing (uart dma, only for DEBUG)&lt;/b&gt;&lt;/font&gt;&lt;/li&gt;&lt;/ul&gt;" style="rounded=1;whiteSpace=wrap;html=1;align=left;fillColor=#dae8fc;strokeColor=#6c8ebf;" vertex="1" parent="1">
          <mxGeometry x="150" y="970" width="580" height="120" as="geometry" />
        </mxCell>
        <mxCell id="ClMVa5LSUmE7PCBOvppx-20" value="&lt;font style=&quot;font-size: 20px;&quot;&gt;&lt;b&gt;Star ADC DMA to fill the other buffer&lt;/b&gt;&lt;/font&gt;" style="rounded=1;whiteSpace=wrap;html=1;align=center;fillColor=#dae8fc;strokeColor=#6c8ebf;" vertex="1" parent="1">
          <mxGeometry x="315" y="1330" width="250" height="130" as="geometry" />
        </mxCell>
        <mxCell id="ClMVa5LSUmE7PCBOvppx-26" value="" style="curved=1;endArrow=classic;html=1;rounded=0;exitX=0.5;exitY=1;exitDx=0;exitDy=0;entryX=0;entryY=0.5;entryDx=0;entryDy=0;strokeWidth=5;" edge="1" parent="1" source="ClMVa5LSUmE7PCBOvppx-20" target="ClMVa5LSUmE7PCBOvppx-10">
          <mxGeometry width="50" height="50" relative="1" as="geometry">
            <mxPoint x="80" y="1110" as="sourcePoint" />
            <mxPoint x="120" y="930" as="targetPoint" />
            <Array as="points">
              <mxPoint x="170" y="1530" />
              <mxPoint x="-20" y="1190" />
              <mxPoint x="20" y="730" />
            </Array>
          </mxGeometry>
        </mxCell>
        <mxCell id="ClMVa5LSUmE7PCBOvppx-27" value="&lt;ul&gt;&lt;li&gt;&lt;b style=&quot;&quot;&gt;&lt;font style=&quot;font-size: 22px;&quot;&gt;If vehicle passes, count it and calculate speed&lt;/font&gt;&lt;/b&gt;&lt;/li&gt;&lt;/ul&gt;" style="rounded=1;whiteSpace=wrap;html=1;align=left;fillColor=#dae8fc;strokeColor=#6c8ebf;" vertex="1" parent="1">
          <mxGeometry x="300" y="1130" width="280" height="130" as="geometry" />
        </mxCell>
      </root>
    </mxGraphModel>
  </diagram>
</mxfile>
